<svg width="48" height="48" viewBox="0 0 48 48" fill="none" xmlns="http://www.w3.org/2000/svg">
<circle cx="24" cy="24" r="24" fill="#28A8EA"/>
<path fill-rule="evenodd" clip-rule="evenodd" d="M10.7117 23.351C17.4212 19.9747 21.8878 17.7313 24.1307 16.6428C30.5143 13.5553 31.8562 13.0222 32.7189 13C32.9106 13 33.3323 13.0444 33.6199 13.311C33.8499 13.5331 33.9074 13.8219 33.9458 14.044C33.9841 14.2661 34.0225 14.7326 33.9841 15.088C33.6391 19.3083 32.1438 29.5483 31.377 34.2573C31.0511 36.2564 30.4185 36.9228 29.8051 36.9894C28.4632 37.1227 27.4471 35.9677 26.1628 34.9903C24.1307 33.4577 22.9997 32.5025 21.0252 30.9921C18.744 29.2595 20.22 28.3044 21.5236 26.7495C21.8687 26.3497 27.7539 20.1302 27.8689 19.5749C27.8881 19.5082 27.8881 19.2417 27.7539 19.1084C27.6197 18.9751 27.428 19.0196 27.2746 19.064C27.0637 19.1084 23.8432 21.5962 17.5746 26.5052C16.6544 27.2382 15.8301 27.5936 15.0825 27.5714C14.2582 27.5492 12.6862 27.0383 11.4977 26.594C10.0599 26.0609 8.90974 25.7722 9.00559 24.8392C9.0631 24.3506 9.6382 23.8619 10.7117 23.351Z" fill="white"/>
</svg>
