<svg width="323" height="56" viewBox="0 0 323 56" fill="none" xmlns="http://www.w3.org/2000/svg">
<path d="M20.9453 34.8555H13.3164V45H4.48438V5.78906H20.9453C32.2109 5.78906 37.8438 10.6471 37.8438 20.3633C37.8438 30.0247 32.2109 34.8555 20.9453 34.8555ZM28.6289 20.3633C28.6289 15.6237 26.0677 13.2539 20.9453 13.2539H13.3164V27.418H20.9453C26.0677 27.418 28.6289 25.0664 28.6289 20.3633ZM37.9609 37.0977C37.9609 34.2174 39.1458 32.0573 41.5156 30.6172C43.8854 29.1953 46.8841 28.4844 50.5117 28.4844C52.3893 28.4844 54.0755 28.6758 55.5703 29.0586C57.0651 29.4779 58.1042 29.8607 58.6875 30.207L59.5898 30.8359V26.7344C59.5898 25.5312 59.1341 24.5195 58.2227 23.6992C57.3112 22.8971 55.7891 22.4961 53.6562 22.4961C52.125 22.4961 50.7578 22.7786 49.5547 23.3438C48.2969 23.9271 47.668 24.8203 47.668 26.0234H39.3828C39.401 22.8333 40.6953 20.4362 43.2656 18.832C45.8177 17.2461 49.2812 16.4531 53.6562 16.4531C58.0859 16.4531 61.5221 17.3099 63.9648 19.0234C66.4258 20.737 67.6562 23.3073 67.6562 26.7344V35.4844C67.6562 36.6146 67.793 37.3984 68.0664 37.8359C68.3398 38.2734 68.8138 38.4922 69.4883 38.4922L70.6641 38.2734V45C69.9714 45.3646 68.8138 45.5469 67.1914 45.5469C65.0951 45.5469 63.5091 45.0911 62.4336 44.1797C61.4674 43.3958 60.8568 42.6758 60.6016 42.0195L60.4375 41.6367H60.0273C60.0273 41.7096 59.9362 41.8737 59.7539 42.1289C59.5716 42.3659 59.2161 42.694 58.6875 43.1133C58.1771 43.5326 57.5664 43.9062 56.8555 44.2344C54.9961 45.1094 52.5625 45.5469 49.5547 45.5469C46.237 45.5469 43.4753 44.8268 41.2695 43.3867C39.0638 41.9648 37.9609 39.8685 37.9609 37.0977ZM52.8633 39.4492C54.3034 39.4492 55.5977 39.2669 56.7461 38.9023C57.8398 38.556 58.5964 38.2005 59.0156 37.8359L59.5898 37.3164V35.6484C59.444 35.5026 59.2526 35.3477 59.0156 35.1836C58.7057 34.9831 57.9857 34.737 56.8555 34.4453C55.6523 34.1354 54.3216 33.9805 52.8633 33.9805C48.4518 33.9805 46.2461 34.8919 46.2461 36.7148C46.2461 38.5378 48.4518 39.4492 52.8633 39.4492ZM91.5352 16.4531L94.3242 16.7266V25.6133C93.1211 25.0482 91.4987 24.7747 89.457 24.793C86.8503 24.793 84.8451 25.5221 83.4414 26.9805C82.0378 28.4753 81.3359 30.3529 81.3359 32.6133V45H73.2695V17H81.3359V22.1406H81.8008C82.0924 21.4844 82.5026 20.8281 83.0312 20.1719C83.5599 19.4974 84.1523 18.9141 84.8086 18.4219C85.556 17.875 86.5312 17.4102 87.7344 17.0273C88.9375 16.6445 90.2044 16.4531 91.5352 16.4531ZM116.891 17H126.352L114.375 30.6172L127.363 45H117.848L105.297 31.2734V45H97.2305V5.78906H105.297V30.0977L116.891 17ZM148.434 37.2617H171.129V45H139.602V5.78906H148.434V37.2617ZM172.887 17H180.953V45H172.887V17ZM173.652 11.6133C172.85 10.957 172.449 10.0638 172.449 8.93359C172.449 7.83984 172.85 6.94661 173.652 6.25391C174.436 5.57943 175.53 5.24219 176.934 5.24219C178.337 5.24219 179.431 5.57943 180.215 6.25391C181.017 6.94661 181.418 7.83984 181.418 8.93359C181.418 10.0638 181.017 10.957 180.215 11.6133C179.431 12.2878 178.337 12.625 176.934 12.625C175.53 12.625 174.436 12.2878 173.652 11.6133ZM216.152 45H208.086V30.8906C208.086 28.5391 207.457 26.7435 206.199 25.5039C204.96 24.2461 203.219 23.6172 200.977 23.6172C198.698 23.6172 196.948 24.2826 195.727 25.6133C194.487 26.9622 193.867 28.7214 193.867 30.8906V45H185.801V17H193.867V21.6484H194.332C194.533 21.2109 194.961 20.6094 195.617 19.8438C196.182 19.224 196.784 18.6953 197.422 18.2578C198.169 17.7474 199.172 17.319 200.43 16.9727C201.688 16.6263 203.009 16.4531 204.395 16.4531C207.913 16.4531 210.757 17.4648 212.926 19.4883C215.077 21.5299 216.152 24.5833 216.152 28.6484V45ZM251.461 31L251.297 33.1328H228.055C228.055 34.8099 228.72 36.25 230.051 37.4531C231.345 38.6745 233.214 39.2852 235.656 39.2852C237.042 39.2852 238.281 39.0482 239.375 38.5742C240.414 38.1003 241.098 37.6263 241.426 37.1523L241.945 36.4961H250.777C250.741 36.7513 250.659 37.0703 250.531 37.4531C250.385 37.9089 249.984 38.6289 249.328 39.6133C248.635 40.6888 247.806 41.6185 246.84 42.4023C245.783 43.2227 244.297 43.9427 242.383 44.5625C240.378 45.2188 238.135 45.5469 235.656 45.5469C230.88 45.5469 227.007 44.2617 224.035 41.6914C221.064 39.1211 219.578 35.5573 219.578 31C219.578 26.4427 221.055 22.8789 224.008 20.3086C226.961 17.7383 230.807 16.4531 235.547 16.4531C240.25 16.4531 244.078 17.7383 247.031 20.3086C249.984 22.8789 251.461 26.4427 251.461 31ZM240.988 24.4375C239.694 23.2891 237.88 22.7148 235.547 22.7148C233.214 22.7148 231.409 23.2982 230.133 24.4648C228.82 25.6497 228.164 26.8984 228.164 28.2109H242.875C242.875 26.862 242.246 25.6042 240.988 24.4375Z" fill="white"/>
<path fill-rule="evenodd" clip-rule="evenodd" d="M291.582 38.3321L291.712 35.5391C298.722 35.2392 302.132 31.6544 302.132 25.5865C302.132 18.2548 295.938 15.8453 291.867 16.7009C292.358 15.2651 294.476 4.53554 285.518 4.53554C276.886 4.53554 278.709 13.19 279.029 14.8619C272.56 14.8619 271.353 20.4823 271.353 23.1524C271.353 26.6978 274.488 30.4497 281.112 30.4497V33.4886C265.135 33.4886 264.489 15.6536 275.224 12.1672C274.253 5.519 278.894 1 285.493 1C291.502 1 296.329 5.39115 295.648 13.19L304.16 1L315.421 15.5208L311.625 17.0648L318.45 24.844L312.887 26.8896L322 37.7076L291.582 38.3321ZM277.061 21.0183L277.978 19.0858L284.116 22.6115L284.382 13.5834L287.707 12.9785L288.678 26.865L296.299 21.4855L297.52 24.0228L289.008 32.3822L289.845 45L283.476 44.7L283.976 28.3304L277.061 21.0183ZM309.297 40.4318L309.738 44.7345H300.905L301.351 39.9991L309.297 40.4318Z" fill="white"/>
</svg>
